<svg width="40" height="40" viewBox="0 0 40 40" fill="none" xmlns="http://www.w3.org/2000/svg">
<path d="M20 0C8.95604 0 0 8.95604 0 20C0 31.044 8.95604 40 20 40C31.044 40 40 31.044 40 20C40 8.95604 31.0165 0 20 0ZM28.7912 10.9341C29.533 10.9341 30.2472 11.2088 30.7967 11.7582C31.8956 12.8571 31.8956 14.6978 30.7967 15.7967L18.6813 27.9121C17.5824 29.011 15.7418 29.011 14.6429 27.9121L9.25824 22.5275C8.15934 21.4286 8.15934 19.5879 9.25824 18.489C10.3571 17.3901 12.1978 17.3901 13.2967 18.489L16.6758 21.8681L26.7857 11.7582C27.3077 11.2088 28.0494 10.9341 28.7912 10.9341Z" fill="#DC716D"/>
</svg>
